<svg xmlns="http://www.w3.org/2000/svg" viewBox="0 0 32 32" fill="none">
  <rect width="32" height="32" rx="6" fill="#f1f5f9"/>
  <!-- Livro de trás (maior) -->
  <path
    fill="#1e3a8a"
    d="M7 6h11c.55 0 1 .45 1 1v18c0 .55-.45 1-1 1H7c-.55 0-1-.45-1-1V7c0-.55.45-1 1-1z"
  />
  <!-- Costelas das páginas -->
  <path fill="#e2e8f0" d="M8.5 8.5h8v1.2h-8V8.5zm0 2.4h8v1.2h-8v-1.2zm0 2.4h6.5v1.2H8.5V13.3z"/>
  <!-- Livro da frente (inclinado leve) -->
  <path
    fill="#3b82f6"
    d="M14 9h12c.55 0 1 .45 1 1v15.5c0 .55-.45 1-1 1H14a1 1 0 0 1-1-1V10c0-.55.45-1 1-1z"
  />
  <path fill="#bfdbfe" d="M15.2 11.2h9.6v1.1h-9.6v-1.1zm0 2.2h9.6v1.1h-9.6v-1.1zm0 2.2h7.5v1.1h-7.5v-1.1z"/>
</svg>
